#N canvas 0 64 1920 1016 12;
#X obj 27 15 bng 15 250 50 0 empty empty empty 17 7 0 10 -262144 -1
-1;
#X obj 87 58 f 0;
#X floatatom 91 138 5 0 0 0 - - -;
#X msg 86 6 0;
#X obj 285 137 + 1;
#X connect 0 0 1 0;
#X connect 1 0 2 0;
#X connect 1 0 4 0;
#X connect 3 0 1 0;
#X connect 4 0 1 1;
