#N canvas 0 64 1920 1016 12;
#X obj 491 36 bng 15 250 50 0 empty empty empty 17 7 0 10 -262144 -1
-1;
#N canvas 0 64 1920 1016 bell 0;
#X obj 157 154 osc~;
#X obj 156 111 sig~;
#X obj 323 337 outlet~;
#X obj 323 289 *~;
#X obj 348 3 inlet;
#X obj 424 229 line~;
#X msg 585 186 0 1000;
#X msg 160 59 \$1;
#X obj 576 84 delay \$3;
#X msg 348 77 \$2;
#X connect 0 0 3 0;
#X connect 1 0 0 0;
#X connect 3 0 2 0;
#X connect 4 0 7 0;
#X connect 4 0 9 0;
#X connect 4 0 8 0;
#X connect 5 0 3 1;
#X connect 6 0 5 0;
#X connect 7 0 1 0;
#X connect 8 0 6 0;
#X connect 9 0 5 0;
#X restore 480 169 pd bell;
#X obj 491 301 dac~;
#N canvas 0 64 1920 1016 bell 0;
#X obj 157 154 osc~;
#X obj 156 111 sig~;
#X obj 323 337 outlet~;
#X obj 323 289 *~;
#X obj 348 3 inlet;
#X obj 424 229 line~;
#X msg 585 186 0 1000;
#X msg 160 59 \$1;
#X obj 576 84 delay \$3;
#X msg 348 77 \$2;
#X connect 0 0 3 0;
#X connect 1 0 0 0;
#X connect 3 0 2 0;
#X connect 4 0 7 0;
#X connect 4 0 9 0;
#X connect 4 0 8 0;
#X connect 5 0 3 1;
#X connect 6 0 5 0;
#X connect 7 0 1 0;
#X connect 8 0 6 0;
#X connect 9 0 5 0;
#X restore 607 168 pd bell;
#N canvas 0 64 1920 1016 bell 0;
#X obj 157 154 osc~;
#X obj 156 111 sig~;
#X obj 323 337 outlet~;
#X obj 323 289 *~;
#X obj 348 3 inlet;
#X obj 424 229 line~;
#X msg 585 186 0 1000;
#X msg 160 59 \$1;
#X obj 576 84 delay \$3;
#X msg 348 77 \$2;
#X connect 0 0 3 0;
#X connect 1 0 0 0;
#X connect 3 0 2 0;
#X connect 4 0 7 0;
#X connect 4 0 9 0;
#X connect 4 0 8 0;
#X connect 5 0 3 1;
#X connect 6 0 5 0;
#X connect 7 0 1 0;
#X connect 8 0 6 0;
#X connect 9 0 5 0;
#X restore 702 169 pd bell;
#N canvas 0 64 1920 1016 bell 0;
#X obj 157 154 osc~;
#X obj 156 111 sig~;
#X obj 323 337 outlet~;
#X obj 323 289 *~;
#X obj 348 3 inlet;
#X obj 424 229 line~;
#X msg 585 186 0 1000;
#X msg 160 59 \$1;
#X obj 576 84 delay \$3;
#X msg 348 77 \$2;
#X connect 0 0 3 0;
#X connect 1 0 0 0;
#X connect 3 0 2 0;
#X connect 4 0 7 0;
#X connect 4 0 9 0;
#X connect 4 0 8 0;
#X connect 5 0 3 1;
#X connect 6 0 5 0;
#X connect 7 0 1 0;
#X connect 8 0 6 0;
#X connect 9 0 5 0;
#X restore 355 170 pd bell;
#N canvas 0 64 1920 1016 bell 0;
#X obj 157 154 osc~;
#X obj 156 111 sig~;
#X obj 323 337 outlet~;
#X obj 323 289 *~;
#X obj 348 3 inlet;
#X obj 424 229 line~;
#X msg 585 186 0 1000;
#X msg 160 59 \$1;
#X obj 576 84 delay \$3;
#X msg 348 77 \$2;
#X connect 0 0 3 0;
#X connect 1 0 0 0;
#X connect 3 0 2 0;
#X connect 4 0 7 0;
#X connect 4 0 9 0;
#X connect 4 0 8 0;
#X connect 5 0 3 1;
#X connect 6 0 5 0;
#X connect 7 0 1 0;
#X connect 8 0 6 0;
#X connect 9 0 5 0;
#X restore 223 169 pd bell;
#N canvas 0 64 1920 1016 bell 0;
#X obj 157 154 osc~;
#X obj 156 111 sig~;
#X obj 323 337 outlet~;
#X obj 323 289 *~;
#X obj 348 3 inlet;
#X obj 424 229 line~;
#X msg 585 186 0 1000;
#X msg 160 59 \$1;
#X obj 576 84 delay \$3;
#X msg 348 77 \$2 1000;
#X connect 0 0 3 0;
#X connect 1 0 0 0;
#X connect 3 0 2 0;
#X connect 4 0 7 0;
#X connect 4 0 9 0;
#X connect 4 0 8 0;
#X connect 5 0 3 1;
#X connect 6 0 5 0;
#X connect 7 0 1 0;
#X connect 8 0 6 0;
#X connect 9 0 5 0;
#X restore 957 172 pd bell;
#N canvas 0 64 1920 1016 bell 0;
#X obj 157 154 osc~;
#X obj 156 111 sig~;
#X obj 323 337 outlet~;
#X obj 323 289 *~;
#X obj 348 3 inlet;
#X obj 424 229 line~;
#X msg 585 186 0 1000;
#X msg 160 59 \$1;
#X obj 576 84 delay \$3;
#X msg 348 77 \$2 1000;
#X connect 0 0 3 0;
#X connect 1 0 0 0;
#X connect 3 0 2 0;
#X connect 4 0 7 0;
#X connect 4 0 9 0;
#X connect 4 0 8 0;
#X connect 5 0 3 1;
#X connect 6 0 5 0;
#X connect 7 0 1 0;
#X connect 8 0 6 0;
#X connect 9 0 5 0;
#X restore 1072 172 pd bell;
#N canvas 0 64 1920 1016 bell 0;
#X obj 157 154 osc~;
#X obj 156 111 sig~;
#X obj 323 337 outlet~;
#X obj 323 289 *~;
#X obj 348 3 inlet;
#X obj 424 229 line~;
#X msg 585 186 0 1000;
#X msg 160 59 \$1;
#X obj 576 84 delay \$3;
#X msg 348 77 \$2 1000;
#X connect 0 0 3 0;
#X connect 1 0 0 0;
#X connect 3 0 2 0;
#X connect 4 0 7 0;
#X connect 4 0 9 0;
#X connect 4 0 8 0;
#X connect 5 0 3 1;
#X connect 6 0 5 0;
#X connect 7 0 1 0;
#X connect 8 0 6 0;
#X connect 9 0 5 0;
#X restore 1195 173 pd bell;
#N canvas 0 64 1920 1016 bell 1;
#X obj 157 154 osc~;
#X obj 156 111 sig~;
#X obj 323 337 outlet~;
#X obj 323 289 *~;
#X obj 348 3 inlet;
#X obj 424 229 line~;
#X msg 585 186 0 1000;
#X msg 160 59 \$1;
#X obj 576 84 delay \$3;
#X msg 348 77 \$2;
#X connect 0 0 3 0;
#X connect 1 0 0 0;
#X connect 3 0 2 0;
#X connect 4 0 7 0;
#X connect 4 0 9 0;
#X connect 4 0 8 0;
#X connect 5 0 3 1;
#X connect 6 0 5 0;
#X connect 7 0 1 0;
#X connect 8 0 6 0;
#X connect 9 0 5 0;
#X restore 841 172 pd bell;
#N canvas 0 64 1920 1016 bell 0;
#X obj 157 154 osc~;
#X obj 156 111 sig~;
#X obj 323 337 outlet~;
#X obj 323 289 *~;
#X obj 348 3 inlet;
#X obj 424 229 line~;
#X msg 585 186 0 1000;
#X msg 160 59 \$1;
#X obj 576 84 delay \$3;
#X msg 348 77 \$2;
#X connect 0 0 3 0;
#X connect 1 0 0 0;
#X connect 3 0 2 0;
#X connect 4 0 7 0;
#X connect 4 0 9 0;
#X connect 4 0 8 0;
#X connect 5 0 3 1;
#X connect 6 0 5 0;
#X connect 7 0 1 0;
#X connect 8 0 6 0;
#X connect 9 0 5 0;
#X restore 111 169 pd bell;
#N canvas 0 64 1920 1016 bell 0;
#X obj 157 154 osc~;
#X obj 156 111 sig~;
#X obj 323 337 outlet~;
#X obj 323 289 *~;
#X obj 348 3 inlet;
#X obj 424 229 line~;
#X msg 585 186 0 1000;
#X msg 160 59 \$1;
#X obj 576 84 delay \$3;
#X msg 348 77 \$2;
#X connect 0 0 3 0;
#X connect 1 0 0 0;
#X connect 3 0 2 0;
#X connect 4 0 7 0;
#X connect 4 0 9 0;
#X connect 4 0 8 0;
#X connect 5 0 3 1;
#X connect 6 0 5 0;
#X connect 7 0 1 0;
#X connect 8 0 6 0;
#X connect 9 0 5 0;
#X restore -31 170 pd bell;
#N canvas 0 64 1920 1016 bell 0;
#X obj 157 154 osc~;
#X obj 156 111 sig~;
#X obj 323 337 outlet~;
#X obj 323 289 *~;
#X obj 348 3 inlet;
#X obj 424 229 line~;
#X msg 585 186 0 1000;
#X msg 160 59 \$1;
#X obj 576 84 delay \$3;
#X msg 348 77 \$2;
#X connect 0 0 3 0;
#X connect 1 0 0 0;
#X connect 3 0 2 0;
#X connect 4 0 7 0;
#X connect 4 0 9 0;
#X connect 4 0 8 0;
#X connect 5 0 3 1;
#X connect 6 0 5 0;
#X connect 7 0 1 0;
#X connect 8 0 6 0;
#X connect 9 0 5 0;
#X restore -145 170 pd bell;
#X msg -135 124 560 0.229 5000;
#X msg -21 124 562.5 0.1925 4500;
#X msg 121 123 920 0.229 3250;
#X msg 233 123 924.25 0.412 2750;
#X msg 365 124 1190 0.6105 1625;
#X msg 490 123 1170 0.3815 1750;
#X msg 617 122 200 0.3355 1250;
#X msg 734 123 2700 0.305 1000;
#X msg 851 126 4000 0.305 750;
#X msg 967 126 3000 0.23 500;
#X msg 1082 126 3760 0.305 375;
#X msg 1205 127 4070 0.305 375;
#X connect 0 0 19 0;
#X connect 0 0 25 0;
#X connect 0 0 24 0;
#X connect 0 0 23 0;
#X connect 0 0 22 0;
#X connect 0 0 21 0;
#X connect 0 0 20 0;
#X connect 0 0 18 0;
#X connect 0 0 17 0;
#X connect 0 0 16 0;
#X connect 0 0 15 0;
#X connect 0 0 14 0;
#X connect 1 0 2 0;
#X connect 3 0 2 0;
#X connect 4 0 2 0;
#X connect 5 0 2 0;
#X connect 6 0 2 0;
#X connect 7 0 2 0;
#X connect 8 0 2 0;
#X connect 9 0 2 0;
#X connect 10 0 2 0;
#X connect 11 0 2 0;
#X connect 12 0 2 0;
#X connect 13 0 2 0;
#X connect 14 0 13 0;
#X connect 15 0 12 0;
#X connect 16 0 11 0;
#X connect 17 0 6 0;
#X connect 18 0 5 0;
#X connect 19 0 1 0;
#X connect 20 0 3 0;
#X connect 21 0 4 0;
#X connect 22 0 10 0;
#X connect 23 0 7 0;
#X connect 24 0 8 0;
#X connect 25 0 9 0;
