#N canvas 282 94 1920 1016 12;
#X obj 158 97 f 0;
#X obj 82 15 bng 15 250 50 0 empty empty empty 17 7 0 10 -262144 -1
-1;
#X obj 296 110 + 1;
#X obj 157 170 select 0;
#X msg 169 35 0;
#X floatatom 202 285 5 0 0 0 - - -;
#X msg 161 218 0;
#X obj 271 340 *;
#X floatatom 207 408 5 0 0 0 Res - -;
#X obj 340 343 nbx 5 14 1 1e+37 0 0 empty empty Valeur_stockée_n-1
0 -8 0 10 -262144 -1 -1 1 256;
#X obj 207 442 print;
#X text 387 8 Compteur de clic;
#X text 397 166 Vérifier que la valeur est toujours supérieur à
0;
#X text 479 313 Factoriel;
#X connect 0 0 2 0;
#X connect 0 0 3 0;
#X connect 1 0 0 0;
#X connect 2 0 0 1;
#X connect 3 0 6 0;
#X connect 3 1 5 0;
#X connect 4 0 0 0;
#X connect 5 0 7 0;
#X connect 6 0 5 0;
#X connect 7 0 8 0;
#X connect 7 0 9 0;
#X connect 8 0 10 0;
#X connect 9 0 7 1;
