#N canvas 0 64 1920 1016 12;
#X obj 158 97 f 0;
#X floatatom -73 -269 5 0 0 0 - - -;
#X obj 82 15 bng 15 250 50 0 empty empty empty 17 7 0 10 -262144 -1
-1;
#X obj 303 160 + 1;
#X floatatom 160 229 5 0 0 0 - - -;
#X obj 291 338 - 1;
#X obj 219 287 select 0;
#X msg 169 35 0;
#X msg 223 335 0;
#X floatatom 264 402 5 0 0 0 - - -;
#X connect 0 0 3 0;
#X connect 0 0 4 0;
#X connect 2 0 0 0;
#X connect 3 0 0 1;
#X connect 4 0 6 0;
#X connect 5 0 9 0;
#X connect 6 0 8 0;
#X connect 6 1 5 0;
#X connect 7 0 0 0;
#X connect 8 0 9 0;
